<svg width="72" height="72" viewBox="0 0 72 72" fill="none" xmlns="http://www.w3.org/2000/svg">
<path d="M6 25.5V10.5M6 10.5H21M6 10.5L24 28.5M63 28.5V19.5C63 16.02 60.48 13.5 57 13.5H36M9 40.5V46.5C9 49.65 11.85 52.5 15 52.5H24" stroke="black" stroke-width="4" stroke-linecap="round" stroke-linejoin="round"/>
<path d="M60 40.5H42C38.6863 40.5 36 43.1863 36 46.5V55.5C36 58.8137 38.6863 61.5 42 61.5H60C63.3137 61.5 66 58.8137 66 55.5V46.5C66 43.1863 63.3137 40.5 60 40.5Z" stroke="black" stroke-width="4" stroke-linecap="round" stroke-linejoin="round"/>
</svg>
