<svg width="229" height="79" viewBox="0 0 229 79" fill="none" xmlns="http://www.w3.org/2000/svg">
<path d="M51.3779 52.8117L50.6109 53.4212L51.2044 54.2005C55.8283 60.2719 62.783 63.0001 70.5854 63.0001C75.8791 63.0001 80.3899 61.5252 83.5967 58.8603C86.8195 56.1823 88.658 52.3543 88.658 47.8248C88.658 42.7036 86.2858 39.3862 82.9134 37.1121C79.6149 34.8878 75.3301 33.6405 71.4324 32.5443L71.4308 32.5439C71.2408 32.4908 71.0519 32.4381 70.8641 32.3858C67.7204 31.5096 64.9064 30.7254 62.8158 29.4708C61.7304 28.8194 60.8906 28.068 60.3188 27.1558C59.7518 26.2516 59.4112 25.131 59.4112 23.6768C59.4112 21.3859 60.3672 19.5012 62.0567 18.1663C63.7661 16.8156 66.2856 15.9864 69.4328 15.9864C73.4737 15.9864 78.1597 18.4411 80.9473 22.2061L81.5563 23.0287L82.3645 22.4007L86.3986 19.2665L87.1125 18.7118L86.6324 17.9458C83.259 12.5631 76.3631 9.00012 69.4328 9.00012C59.7696 9.00012 52.0805 14.8383 52.0805 23.8905C52.0805 29.0516 54.4929 32.3868 57.91 34.6681C61.2532 36.9001 65.5916 38.1469 69.5245 39.2429L69.5245 39.2429L69.5308 39.2446C69.6308 39.2718 69.7305 39.2988 69.8298 39.3258C73.0396 40.1971 75.8996 40.9735 78.0013 42.2431C79.0626 42.8841 79.8825 43.6256 80.4407 44.5262C80.9945 45.4197 81.3273 46.5284 81.3273 47.9672C81.3273 50.3557 80.3072 52.3283 78.4926 53.7291C76.6566 55.1465 73.9537 56.0138 70.5854 56.0138C65.0331 56.0138 60.5564 54.0684 56.7888 49.7332L56.1611 49.0109L55.4119 49.6062L51.3779 52.8117ZM128.396 31.6585L129.225 31.0094L128.534 30.2153C124.822 25.9456 119.364 23.2467 113.228 23.2467C102.097 23.2467 93.1385 32.0893 93.1385 43.1234C93.1385 54.1575 102.097 63.0001 113.228 63.0001C119.364 63.0001 124.822 60.3012 128.534 56.0315L129.225 55.2374L128.396 54.5883L124.578 51.5966L123.81 50.9944L123.189 51.7482C120.878 54.556 117.357 56.1563 113.228 56.1563C105.859 56.1563 100.181 50.4095 100.181 43.1234C100.181 35.8373 105.859 30.0905 113.228 30.0905C117.357 30.0905 120.878 31.6908 123.189 34.4987L123.81 35.2524L124.578 34.6503L128.396 31.6585ZM163.722 24.3152H162.722V25.3152V29.3969C159.685 25.5787 155.115 23.2467 149.387 23.2467C138.256 23.2467 129.297 32.0893 129.297 43.1234C129.297 54.1575 138.256 63.0001 149.387 63.0001C155.115 63.0001 159.685 60.6681 162.722 56.8499V60.9316V61.9316H163.722H168.765H169.765V60.9316V25.3152V24.3152H168.765H163.722ZM177.106 60.9316V61.9316H178.106H183.148H184.148V60.9316V11.0686V10.0686H183.148H178.106H177.106V11.0686V60.9316ZM226.9 46.6166H227.814L227.896 45.7064C228.42 39.898 226.947 34.2973 223.74 30.128C220.518 25.9396 215.58 23.2467 209.323 23.2467C198.192 23.2467 189.234 32.0893 189.234 43.1234C189.234 54.1575 198.192 63.0001 209.323 63.0001C215.46 63.0001 220.918 60.3012 224.629 56.0316L225.32 55.2374L224.492 54.5883L220.674 51.5966L219.905 50.9944L219.285 51.7482C216.974 54.556 213.452 56.1563 209.323 56.1563C203.189 56.1563 198.234 52.1138 196.739 46.6166H226.9ZM149.387 56.1563C142.018 56.1563 136.34 50.4095 136.34 43.1234C136.34 35.8373 142.018 30.0905 149.387 30.0905C156.783 30.0905 162.722 35.8637 162.722 43.1234C162.722 50.3831 156.783 56.1563 149.387 56.1563ZM220.604 39.7727H196.72C198.147 34.1489 203.108 30.0905 209.323 30.0905C215.595 30.0905 219.508 34.4894 220.604 39.7727Z" fill="#020617" stroke="#020617" stroke-width="2"/>
<path d="M12.3856 47.3844L16.7041 25.2878L17.0535 23.5001H15.232H13.792H12.5551L12.3195 24.7143L8.12422 46.3306L8.08651 46.3683L7.99929 46.8193L2.52729 75.1153L2.18213 76.9001H4H5.44H6.67699L6.91255 75.6858L10.232 58.5734C12.5724 61.7334 16.3182 63.5801 20.704 63.5801C26.0812 63.5801 31.3198 60.672 35.024 56.366C35.2256 57.4724 35.5674 58.4687 36.0638 59.3289C37.2564 61.3952 39.244 62.5001 41.728 62.5001H42.9451L43.1958 61.3091L43.4838 59.9411L43.8647 58.1321H42.016C41.3744 58.1321 40.9276 57.9673 40.5971 57.7201C40.2576 57.4661 39.9319 57.0426 39.6833 56.352C39.169 54.9234 39.0812 52.6111 39.6734 49.4013L44.4237 25.2901L44.7764 23.5001H42.952H41.512H40.279L40.0404 24.7098L35.8644 45.8778L35.8643 45.8778L35.8626 45.8868C35.1767 49.4796 33.1028 52.8313 30.3296 55.2871C27.5503 57.7483 24.1826 59.2121 20.992 59.2121C17.8219 59.2121 15.4084 57.9443 13.9173 55.9313C12.4126 53.8999 11.7281 50.9438 12.3856 47.3844ZM8.044 46.8881C8.044 46.912 8.043 46.9062 8.044 46.8806V46.8881Z" fill="#020617" stroke="#020617" stroke-width="3"/>
<path d="M20.9114 1.36957L21.6507 4.84743L20.9114 1.36957ZM19.5421 3.47812L23.02 2.73888L19.5421 3.47812ZM23.4988 13.5421L24.238 17.0199L23.4988 13.5421ZM22.1295 15.6506L25.6073 14.9114L22.1295 15.6506ZM13.4559 4.77179L12.8666 8.28414C12.7913 8.73313 12.7536 8.95763 12.6656 9.15888C12.5877 9.33726 12.4809 9.50163 12.3497 9.64544C12.2016 9.80759 12.0118 9.93335 11.6323 10.1848L8.66329 12.1517L12.1756 12.741C12.6246 12.8163 12.8491 12.854 13.0504 12.9419C13.2288 13.02 13.3931 13.1267 13.5369 13.2579C13.6991 13.406 13.8248 13.5957 14.0763 13.9753L16.0432 16.9443L16.6325 13.432C16.7078 12.9829 16.7455 12.7585 16.8334 12.5572C16.9115 12.3789 17.0182 12.2145 17.1494 12.0707C17.2975 11.9085 17.4872 11.7827 17.8668 11.5313L20.8358 9.56437L17.3235 8.97509C16.8744 8.89978 16.65 8.86207 16.4487 8.77417C16.2704 8.69616 16.106 8.58942 15.9622 8.45818C15.8 8.3101 15.6742 8.12034 15.4228 7.7408L13.4559 4.77179Z" fill="#020617"/>
<path d="M20.9114 1.36957L21.6507 4.84743M19.5421 3.47812L23.02 2.73888M23.4988 13.5421L24.238 17.0199M22.1295 15.6506L25.6073 14.9114M13.4559 4.77179L12.8666 8.28414C12.7913 8.73313 12.7536 8.95763 12.6656 9.15888C12.5877 9.33726 12.4809 9.50163 12.3497 9.64544C12.2016 9.80759 12.0118 9.93335 11.6323 10.1848L8.66329 12.1517L12.1756 12.741C12.6246 12.8163 12.8491 12.854 13.0504 12.9419C13.2288 13.02 13.3931 13.1267 13.5369 13.2579C13.6991 13.406 13.8248 13.5957 14.0763 13.9753L16.0432 16.9443L16.6325 13.432C16.7078 12.9829 16.7455 12.7585 16.8334 12.5572C16.9115 12.3789 17.0182 12.2145 17.1494 12.0707C17.2975 11.9085 17.4872 11.7827 17.8668 11.5313L20.8358 9.56437L17.3235 8.97509C16.8744 8.89978 16.65 8.86207 16.4487 8.77417C16.2704 8.69616 16.106 8.58942 15.9622 8.45818C15.8 8.3101 15.6742 8.12034 15.4228 7.7408L13.4559 4.77179Z" stroke="#020617" stroke-linecap="round" stroke-linejoin="round"/>
</svg>
